<?xml version="1.0" encoding="UTF-8"?>
<svg version="1.1" xmlns="http://www.w3.org/2000/svg" width="242" height="250">
<path d="M0 0 C0.495 1.485 0.495 1.485 1 3 C1.7425 3.020625 2.485 3.04125 3.25 3.0625 C6.66900089 4.22806849 7.50952044 5.89165268 9.17956543 8.99832153 C10.50925168 12.24246121 10.44648218 15.20648412 10.390625 18.68359375 C10.38496521 19.38396255 10.37930542 20.08433136 10.37347412 20.80592346 C10.3512922 23.01717945 10.30113806 25.22674373 10.25 27.4375 C10.22991115 28.94724203 10.21166458 30.45700975 10.1953125 31.96679688 C10.15148947 35.64506999 10.08259341 39.32236956 10 43 C11.64440063 42.98151001 11.64440063 42.98151001 13.32202148 42.96264648 C14.77587697 42.95267652 16.22973456 42.94300819 17.68359375 42.93359375 C18.40430054 42.92469116 19.12500732 42.91578857 19.86755371 42.90661621 C27.65458213 42.86882589 33.0944988 43.92427943 38.875 49.25 C43.87656512 54.79697941 45.36260943 59.94271193 45.10546875 67.27734375 C45.05326172 68.13005859 45.05326172 68.13005859 45 69 C44.29875 68.77183594 43.5975 68.54367188 42.875 68.30859375 C36.74898431 66.45247758 32.2407993 65.33578685 26 67 C23.49835536 68.50790833 21.31148715 70.19704002 19 72 C18.34 72 17.68 72 17 72 C16.7525 72.680625 16.505 73.36125 16.25 74.0625 C14.75802092 77.56865083 12.93164489 80.71620368 11 84 C9.6078125 83.7834375 9.6078125 83.7834375 8.1875 83.5625 C6.79233861 83.37006395 5.39639219 83.18329155 4 83 C3.11957031 82.88140625 2.23914063 82.7628125 1.33203125 82.640625 C-5.84822953 81.80870513 -10.8060201 82.21874198 -17.25 85.8125 C-21.57686096 89.25432122 -23.22448712 92.57140985 -24 98 C-21.41206193 96.56739143 -19.08545034 95.11158381 -17 93 C-16.41439551 89.28841143 -16.41439551 89.28841143 -17 86 C-16.278125 86.680625 -15.55625 87.36125 -14.8125 88.0625 C-12.1794348 90.31737069 -12.1794348 90.31737069 -9.1875 89.75 C-8.465625 89.5025 -7.74375 89.255 -7 89 C-7 87.02 -7 85.04 -7 83 C-6.34 83 -5.68 83 -5 83 C-4.01 84.485 -4.01 84.485 -3 86 C0.58357241 86.25015873 0.58357241 86.25015873 4 86 C2.10020863 87.5040015 0.21010139 88.88246377 -1.90625 90.06640625 C-6.69592425 92.77400195 -10.43822088 95.47906108 -12 101 C-12.45993423 106.13926505 -12.64167791 111.07496626 -11 116 C-10.01 112.7 -9.02 109.4 -8 106 C-8.99 105.01 -9.98 104.02 -11 103 C-11 102.34 -11 101.68 -11 101 C-8.03 101.495 -8.03 101.495 -5 102 C-2.70113419 99.3084494 -2.70113419 99.3084494 -3.375 97 C-3.58125 96.34 -3.7875 95.68 -4 95 C-4 94.01 -4 93.02 -4 92 C-2.68 92.66 -1.36 93.32 0 94 C0.47566406 93.36191406 0.95132813 92.72382812 1.44140625 92.06640625 C4.97006102 87.90090402 7.34886527 85.29019944 12.8671875 84.3203125 C15.54962269 84.16794168 18.14542673 84.22014667 20.83984375 84.29296875 C22.40412109 84.14794922 22.40412109 84.14794922 24 84 C25.53032413 82.10557447 25.53032413 82.10557447 26 80 C28 83.75 28 83.75 28 86 C29.98 86 31.96 86 34 86 C34.99 84.02 34.99 84.02 36 82 C36.66 82 37.32 82 38 82 C38.04125 82.928125 38.0825 83.85625 38.125 84.8125 C38.41375 85.864375 38.7025 86.91625 39 88 C40.98 88.99 42.96 89.98 45 91 C45 113.77 45 136.54 45 160 C38.42928156 158.53984035 35.46029628 157.73014814 30 155 C23.48828948 153.21247162 18.23639753 155.0039017 12 157 C12 157.66 12 158.32 12 159 C6.74424951 160.65657442 3.01641234 161.66205905 -2.12109375 159.00390625 C-2.74113281 158.67261719 -3.36117187 158.34132812 -4 158 C-12.17855746 154.16113721 -12.17855746 154.16113721 -21 154 C-23.6320178 155.39903785 -26.10071033 156.92108701 -28.5703125 158.58984375 C-32.44855632 160.8407216 -35.0539196 161.18921608 -39.4375 160.3125 C-43.19605325 158.92776986 -45.78997409 157.34879945 -49 155 C-40.18067098 142.53129345 -22.38011234 136.01523525 -8.4375 130.875 C0.76848857 127.31449571 9.49729549 120.69028682 14.12890625 111.84375 C17.06685971 104.36053221 16.12923006 97.26290435 13 90 C13.05220703 91.16015625 13.05220703 91.16015625 13.10546875 92.34375 C13.31623427 100.45320437 13.11161369 106.4994346 7.5 112.8125 C6.2625 113.8953125 6.2625 113.8953125 5 115 C4.443125 115.598125 3.88625 116.19625 3.3125 116.8125 C2 118 2 118 0 118 C0 118.66 0 119.32 0 120 C-6.62269371 123.02340365 -13.39202056 125.00583804 -20.40234375 126.9375 C-39.14912688 132.13235697 -39.14912688 132.13235697 -55 143 C-56.64991582 143.70710678 -58.31562256 144.37943989 -60 145 C-60.06972357 134.61166222 -60.12292438 124.22338076 -60.15543652 113.83485603 C-60.17104617 109.01026223 -60.19219796 104.18582934 -60.22631836 99.36132812 C-60.25908023 94.69937447 -60.27688831 90.03757494 -60.28463173 85.37551498 C-60.29014517 83.60304211 -60.30091111 81.83057701 -60.31719017 80.05817032 C-60.4973521 59.61695943 -60.4973521 59.61695943 -54.9375 50.6875 C-46.42862311 42.90278285 -38.65570949 42.44246209 -27.5859375 42.82421875 C-26.40257812 42.88222656 -25.21921875 42.94023438 -24 43 C-24.01571045 42.0620459 -24.0314209 41.1240918 -24.04760742 40.15771484 C-24.09891965 36.65765795 -24.13643872 33.1580043 -24.16479492 29.65771484 C-24.17982543 28.14658273 -24.20025564 26.63549382 -24.22631836 25.12451172 C-24.26295689 22.94487813 -24.27978338 20.76582425 -24.29296875 18.5859375 C-24.3086792 17.2767334 -24.32438965 15.9675293 -24.34057617 14.61865234 C-23.91481827 10.09493645 -22.48264556 6.8696117 -19.66796875 3.3203125 C-13.83470559 -1.38939338 -7.14858241 -0.44616672 0 0 Z M-8.125 6.0625 C-8.84042969 6.10310547 -9.55585937 6.14371094 -10.29296875 6.18554688 C-13.01877188 6.39698768 -15.35941224 6.59815596 -17.70776367 8.07128906 C-19.6950585 11.03740075 -19.36847177 14.06738159 -19.29296875 17.51171875 C-19.28872391 18.23994339 -19.28447906 18.96816803 -19.28010559 19.71846008 C-19.26332733 22.04185127 -19.22567855 24.3643715 -19.1875 26.6875 C-19.17245197 28.26365934 -19.15876377 29.83983229 -19.14648438 31.41601562 C-19.11597938 35.27794833 -19.05726193 39.13800063 -19 43 C-11.08 43 -3.16 43 5 43 C5.11493433 38.37197778 5.21440625 33.74891914 5.2746582 29.12060547 C5.29977448 27.54719249 5.33387472 25.97389588 5.37719727 24.40087891 C5.43798399 22.13675228 5.46623582 19.87416978 5.48828125 17.609375 C5.51408768 16.90818542 5.5398941 16.20699585 5.56648254 15.48455811 C5.56859642 11.78814615 5.26643915 10.2862849 2.7121582 7.54174805 C-0.95719139 5.45587689 -4.06350507 5.67410568 -8.125 6.0625 Z M16.3125 51 C14.6728125 51.99 14.6728125 51.99 13 53 C13 53.66 13 54.32 13 55 C12.401875 55.20625 11.80375 55.4125 11.1875 55.625 C7.98431281 57.63843195 7.27203249 59.43830904 6 63 C5.4033629 69.17303525 5.4033629 69.17303525 7 75 C6.2575 74.236875 5.515 73.47375 4.75 72.6875 C-0.00322808 68.04229983 -4.36187323 65.18575789 -11 64 C-15.64886682 64.35141041 -19.12087449 65.41391632 -23 68 C-23 68.66 -23 69.32 -23 70 C-21.40012764 70.27615058 -19.794667 70.52007625 -18.1875 70.75 C-17.29417969 70.88921875 -16.40085937 71.0284375 -15.48046875 71.171875 C-12.83228781 71.27402528 -12.83228781 71.27402528 -11.17578125 69.015625 C-10.78777344 68.35046875 -10.39976563 67.6853125 -10 67 C-10.061875 67.78375 -10.12375 68.5675 -10.1875 69.375 C-10.125625 70.24125 -10.06375 71.1075 -10 72 C-7.23851844 74.31140296 -7.23851844 74.31140296 -4.4375 73.6875 C-2.01885389 73.08760162 -2.01885389 73.08760162 0 72 C-0.13921875 73.13501953 -0.13921875 73.13501953 -0.28125 74.29296875 C-0.2887504 77.13615562 -0.2887504 77.13615562 1.96875 78.80078125 C2.8040625 79.29964844 3.639375 79.79851562 4.5 80.3125 C5.75296875 81.08013672 5.75296875 81.08013672 7.03125 81.86328125 C7.6809375 82.23839844 8.330625 82.61351562 9 83 C10.5478831 80.20625977 11.30760664 77.92393362 11.625 74.75 C11.810625 72.89375 11.810625 72.89375 12 71 C10.68 70.34 9.36 69.68 8 69 C8 68.34 8 67.68 8 67 C9.98 67 11.96 67 14 67 C14.66 65.02 15.32 63.04 16 61 C15.01 60.01 14.02 59.02 13 58 C13.721875 58.144375 14.44375 58.28875 15.1875 58.4375 C18.0111617 58.2871729 18.0111617 58.2871729 19.4453125 56.51171875 C22.12058334 53.08299569 22.12058334 53.08299569 23 49 C19.8256378 49 18.93707538 49.41535071 16.3125 51 Z M11 86 C12 88 12 88 12 88 Z " fill="#4C9CDA" transform="translate(128,3)"/>
<path d="M0 0 C2 3.75 2 3.75 2 6 C3.98 6 5.96 6 8 6 C8.66 4.68 9.32 3.36 10 2 C10.66 2 11.32 2 12 2 C12.04125 2.928125 12.0825 3.85625 12.125 4.8125 C12.41375 5.864375 12.7025 6.91625 13 8 C14.98 8.99 16.96 9.98 19 11 C19 33.77 19 56.54 19 80 C12.42928156 78.53984035 9.46029628 77.73014814 4 75 C-2.51171052 73.21247162 -7.76360247 75.0039017 -14 77 C-14 77.66 -14 78.32 -14 79 C-19.25575049 80.65657442 -22.98358766 81.66205905 -28.12109375 79.00390625 C-28.74113281 78.67261719 -29.36117187 78.34132813 -30 78 C-38.17855746 74.16113721 -38.17855746 74.16113721 -47 74 C-49.6320178 75.39903785 -52.10071033 76.92108701 -54.5703125 78.58984375 C-58.44855632 80.8407216 -61.0539196 81.18921608 -65.4375 80.3125 C-69.19605325 78.92776986 -71.78997409 77.34879945 -75 75 C-66.18067098 62.53129345 -48.38011234 56.01523525 -34.4375 50.875 C-25.23151143 47.31449571 -16.50270451 40.69028682 -11.87109375 31.84375 C-9.40560948 25.56395151 -9.46880279 19.27292206 -11.74609375 12.91796875 C-12.47234599 11.26739548 -13.23377161 9.63239961 -14 8 C-14 7.01 -14 6.02 -14 5 C-13.15695313 4.97421875 -12.31390625 4.9484375 -11.4453125 4.921875 C-10.34960938 4.86515625 -9.25390625 4.8084375 -8.125 4.75 C-7.03445312 4.70359375 -5.94390625 4.6571875 -4.8203125 4.609375 C-1.8667935 4.31153872 -1.8667935 4.31153872 -0.6171875 1.953125 C-0.41351563 1.30859375 -0.20984375 0.6640625 0 0 Z " fill="#F78D1E" transform="translate(154,83)"/>
<path d="M0 0 C4.13708499 0.31823731 6.85179611 1.41322074 10.3125 3.5625 C14.97124153 6.25143806 18.69356724 7.04435113 24 6 C26.83920467 4.91767907 29.38456315 3.53453896 32 2 C36.02460159 -0.20376242 39.46575191 -0.88473133 44 0 C46.00837074 0.93997216 47.98645448 1.94618688 49.9375 3 C55.19088625 5.76147963 59.11131907 7.52597047 65 6 C68.14060282 4.56570895 71.16597172 2.97811384 74.2109375 1.3515625 C77.79684461 -0.38614599 80.0788978 -0.75405811 84 0 C86.78026311 1.15556229 89.39866919 2.48649844 92 4 C92 4.99 92 5.98 92 7 C87.6526055 10.89766403 83.85512406 11.13222307 78.17700195 11.17700195 C77.48715714 11.18357315 76.79731232 11.19014435 76.08656311 11.19691467 C73.80380132 11.21662151 71.52110533 11.22830624 69.23828125 11.23828125 C68.06586915 11.24439454 68.06586915 11.24439454 66.86977196 11.25063133 C62.73032268 11.27148395 58.59090644 11.28578744 54.45141602 11.29516602 C50.18887983 11.30621069 45.92686852 11.34058996 41.6645174 11.38033772 C38.37610446 11.4065664 35.0878152 11.41486351 31.79930687 11.41844749 C30.22891902 11.4232997 28.65853618 11.43487458 27.08825111 11.45348549 C16.95355289 11.56610615 9.91505805 11.30067579 2 4.375 C0 2 0 2 0 0 Z " fill="#F7942C" transform="translate(72,167)"/>
<path d="M0 0 C2.67605641 1.11104128 5.1512377 2.41764342 7.69140625 3.80859375 C11.49387674 5.77095162 14.83196374 6.55034767 19.03125 5.484375 C22.12449441 4.39943106 24.65596491 3.25105264 27.3125 1.3125 C31.75178036 -0.85552064 36.16809915 -0.74545455 41 0 C43.31401724 1.05359976 45.21967207 2.26217951 47.2734375 3.75390625 C49.37715388 5.2721993 51.55483212 6.15947354 54 7 C53.01 8.65 52.02 10.3 51 12 C50.3709375 11.65066406 49.741875 11.30132812 49.09375 10.94140625 C43.60907539 8.02560785 39.25782662 6 33 6 C29.43690564 7.22865323 26.45624289 8.72003277 23.25 10.6875 C18.47024991 12.61778369 14.08263587 12.8048111 9 12 C6.78328448 10.90537411 4.9027993 9.62705205 2.89453125 8.19140625 C-0.47378586 6.07318621 -3.01259087 6 -7 6 C-10.86115393 6.94558872 -14.10084568 8.34386036 -17.3125 10.6875 C-21.76168927 12.86035987 -26.15717191 12.73536788 -31 12 C-33.53482228 10.92683548 -35.72852282 9.69960465 -38.02734375 8.19140625 C-40.03117549 6.98117124 -41.71501687 6.44472826 -44 6 C-43.09251815 3.65567188 -42.50783807 2.30094108 -40.3125 1 C-37.24504485 1 -35.47277943 2.43270214 -32.91796875 3.99609375 C-29.02985209 6.03121795 -25.15724437 6.52333151 -20.890625 5.48828125 C-17.81647706 4.39614974 -15.29191304 3.2074119 -12.625 1.3125 C-8.45221447 -0.77389276 -4.56584885 -0.73664131 0 0 Z " fill="#F89C3C" transform="translate(117,159)"/>
<path d="M0 0 C5 0 5 0 6.80078125 1.53125 C7.29964844 2.1809375 7.79851562 2.830625 8.3125 3.5 C8.82425781 4.1496875 9.33601563 4.799375 9.86328125 5.46875 C10.23839844 5.9740625 10.61351563 6.479375 11 7 C11.33 4.69 11.66 2.38 12 0 C13.65 0 15.3 0 17 0 C17 5.61 17 11.22 17 17 C11 17 11 17 9.3203125 15.46875 C8.92585938 14.8190625 8.53140625 14.169375 8.125 13.5 C7.51011719 12.52546875 7.51011719 12.52546875 6.8828125 11.53125 C6.59148437 11.0259375 6.30015625 10.520625 6 10 C5.67 12.31 5.34 14.62 5 17 C3.35 17 1.7 17 0 17 C0 11.39 0 5.78 0 0 Z " fill="#328FCE" transform="translate(60,204)"/>
<path d="M0 0 C9.9609375 -0.1953125 9.9609375 -0.1953125 13 0 C15 2 15 2 15.265625 4.96875 C15.26046875 6.1340625 15.2553125 7.299375 15.25 8.5 C15.25515625 9.6653125 15.2603125 10.830625 15.265625 12.03125 C15 15 15 15 13 17 C8.65604929 17.27917421 4.35649033 17.08542138 0 17 C0 11.39 0 5.78 0 0 Z M5 4 C5 4.66 5 5.32 5 6 C6.32 6 7.64 6 9 6 C9 5.34 9 4.68 9 4 C7.68 4 6.36 4 5 4 Z M5 10 C5 10.99 5 11.98 5 13 C6.65 13 8.3 13 10 13 C10 12.34 10 11.68 10 11 C8.35 10.67 6.7 10.34 5 10 Z " fill="#298ACC" transform="translate(186,204)"/>
<path d="M0 0 C12.46903101 -0.37036726 12.46903101 -0.37036726 14.8984375 1.32421875 C16.59936481 3.91179965 16.3140521 5.98509986 16 9 C15.01 10.485 15.01 10.485 14 12 C14.80161791 14.67145537 14.80161791 14.67145537 16 17 C14.02 17 12.04 17 10 17 C9.67 15.68 9.34 14.36 9 13 C8.01 13 7.02 13 6 13 C6 14.32 6 15.64 6 17 C4.02 17 2.04 17 0 17 C0 11.39 0 5.78 0 0 Z M6 4 C6 5.32 6 6.64 6 8 C7.65 7.67 9.3 7.34 11 7 C10.67 6.01 10.34 5.02 10 4 C8.68 4 7.36 4 6 4 Z " fill="#3993D0" transform="translate(115,204)"/>
<path d="M0 0 C4.62 0 9.24 0 14 0 C14 1.32 14 2.64 14 4 C11.03 4 8.06 4 5 4 C5 4.66 5 5.32 5 6 C7.97 6 10.94 6 14 6 C14 7.65 14 9.3 14 11 C11.03 11 8.06 11 5 11 C5 11.66 5 12.32 5 13 C8.3 13 11.6 13 15 13 C15 14.32 15 15.64 15 17 C10.05 17 5.1 17 0 17 C0 11.39 0 5.78 0 0 Z " fill="#3792D0" transform="translate(204,204)"/>
<path d="M0 0 C4.62 0 9.24 0 14 0 C14 1.32 14 2.64 14 4 C11.03 4 8.06 4 5 4 C5 4.66 5 5.32 5 6 C7.97 6 10.94 6 14 6 C14 7.65 14 9.3 14 11 C11.03 11 8.06 11 5 11 C5 11.66 5 12.32 5 13 C8.3 13 11.6 13 15 13 C15 14.32 15 15.64 15 17 C10.05 17 5.1 17 0 17 C0 11.39 0 5.78 0 0 Z " fill="#3792D0" transform="translate(134,204)"/>
<path d="M0 0 C2 1.375 2 1.375 4 3 C4 3.66 4 4.32 4 5 C4.93972656 4.7834375 4.93972656 4.7834375 5.8984375 4.5625 C7.12433594 4.2840625 7.12433594 4.2840625 8.375 4 C9.18710938 3.814375 9.99921875 3.62875 10.8359375 3.4375 C13 3 13 3 15 3 C15 8.28 15 13.56 15 19 C13.01432292 17.47005208 11.02864583 15.94010417 9.04296875 14.41015625 C4.08190594 10.98578976 -1.86341666 11.45594708 -7.58984375 12.44921875 C-9.73874718 12.92788444 -11.87189261 13.43652949 -14 14 C-12.625 12.5 -12.625 12.5 -11 11 C-10.34 11 -9.68 11 -9 11 C-9.33 8.69 -9.66 6.38 -10 4 C-9.484375 4.515625 -8.96875 5.03125 -8.4375 5.5625 C-5.0289729 7.57265701 -2.76893143 6.79727396 1 6 C0.67 4.02 0.34 2.04 0 0 Z " fill="#5BA4DD" transform="translate(158,70)"/>
<path d="M0 0 C4.62 0 9.24 0 14 0 C14 1.32 14 2.64 14 4 C11.03 4 8.06 4 5 4 C5 4.66 5 5.32 5 6 C7.64 6 10.28 6 13 6 C13 7.65 13 9.3 13 11 C10.36 11 7.72 11 5 11 C5 11.66 5 12.32 5 13 C7.97 13 10.94 13 14 13 C14 14.32 14 15.64 14 17 C9.38 17 4.76 17 0 17 C0 11.39 0 5.78 0 0 Z " fill="#2E8DCE" transform="translate(43,204)"/>
<path d="M0 0 C1.65 0 3.3 0 5 0 C5.33 3.96 5.66 7.92 6 12 C7.32 11.67 8.64 11.34 10 11 C10.33 7.37 10.66 3.74 11 0 C12.65 0 14.3 0 16 0 C16.08097324 2.27024968 16.13917704 4.54132075 16.1875 6.8125 C16.23970703 8.70935547 16.23970703 8.70935547 16.29296875 10.64453125 C16 14 16 14 14.69921875 15.89453125 C11.85694653 17.74364169 9.34434894 17.88467762 6 18 C3.62366207 16.86349056 1.85558971 15.85558971 0 14 C-0.07271741 11.64686445 -0.08370868 9.29166332 -0.0625 6.9375 C-0.05347656 5.64714844 -0.04445313 4.35679687 -0.03515625 3.02734375 C-0.02355469 2.02832031 -0.01195313 1.02929688 0 0 Z " fill="#2F8DCE" transform="translate(96,204)"/>
<path d="M0 0 C1.98 0 3.96 0 6 0 C6.99 2.64 7.98 5.28 9 8 C10.77706209 5.33440687 11.87548273 2.9719385 13 0 C14.98 0 16.96 0 19 0 C17.13236819 5.72210596 15.14710968 11.37661751 13 17 C10.69 17 8.38 17 6 17 C4.02 11.39 2.04 5.78 0 0 Z " fill="#3892D0" transform="translate(22,204)"/>
<path d="M0 0 C1.65 0 3.3 0 5 0 C6.32 2.97 7.64 5.94 9 9 C9.99 6.03 10.98 3.06 12 0 C13.98 0 15.96 0 18 0 C16.33846988 5.85659906 14.52958084 11.4590134 12 17 C10.02 17 8.04 17 6 17 C0.44419134 5.47835991 0.44419134 5.47835991 0 0 Z " fill="#3792D0" transform="translate(157,204)"/>
<path d="M0 0 C1 1 1 1 1.125 3.5 C1 6 1 6 0 7 C-1.89364569 7.10013057 -3.79121458 7.12966491 -5.6875 7.125 C-6.77546875 7.12242188 -7.8634375 7.11984375 -8.984375 7.1171875 C-12 7 -12 7 -15.4375 6.25 C-18.21924214 5.70408352 -18.21924214 5.70408352 -20.875 7.9375 C-21.57625 8.618125 -22.2775 9.29875 -23 10 C-21.93880871 5.87314497 -19.94931791 3.34086684 -16.4140625 0.94140625 C-11.25355665 -1.07102403 -5.43463947 -0.50995277 0 0 Z " fill="#58A2DC" transform="translate(128,3)"/>
<path d="M0 0 C4.95 0 9.9 0 15 0 C15 1.32 15 2.64 15 4 C13.35 4 11.7 4 10 4 C10 8.29 10 12.58 10 17 C8.35 17 6.7 17 5 17 C5 12.71 5 8.42 5 4 C3.35 4 1.7 4 0 4 C0 2.68 0 1.36 0 0 Z " fill="#2387CB" transform="translate(79,204)"/>
<path d="M0 0 C-0.6043956 6.40659341 -0.6043956 6.40659341 -2.25 8.875 C-4.62959565 10.40474006 -6.15177465 10.93218511 -9 11 C-11.75 9.375 -11.75 9.375 -14 7 C-14.640625 4.3515625 -14.640625 4.3515625 -15 2 C-12.87528825 1.6648342 -10.75022095 1.33192171 -8.625 1 C-7.44164062 0.814375 -6.25828125 0.62875 -5.0390625 0.4375 C-2 0 -2 0 0 0 Z " fill="#F89D3E" transform="translate(159,180)"/>
<path d="M0 0 C4.62 0.66 9.24 1.32 14 2 C14 7 14 7 12.375 8.8125 C9.2924361 10.35378195 7.40755267 10.49693476 4 10 C1.625 8.375 1.625 8.375 0 6 C0 4.02 0 2.04 0 0 Z " fill="#F89C3B" transform="translate(83,180)"/>
<path d="M0 0 C1.65 0 3.3 0 5 0 C5 5.61 5 11.22 5 17 C3.35 17 1.7 17 0 17 C0 11.39 0 5.78 0 0 Z " fill="#2587CB" transform="translate(177,204)"/>
<path d="M0 0 C4 1 4 1 6 4 C6.33 2.68 6.66 1.36 7 0 C7.99 0 8.98 0 10 0 C10 3.3 10 6.6 10 10 C6.16263678 9.04065919 5.40339772 8.76390737 3 6 C2.67 7.32 2.34 8.64 2 10 C1.34 10 0.68 10 0 10 C0 6.7 0 3.4 0 0 Z " fill="#6BAEDC" transform="translate(130,233)"/>
<path d="M0 0 C4 1 4 1 6 4 C6.33 2.68 6.66 1.36 7 0 C7.99 0 8.98 0 10 0 C10 3.3 10 6.6 10 10 C6.16263678 9.04065919 5.40339772 8.76390737 3 6 C2.67 7.32 2.34 8.64 2 10 C1.34 10 0.68 10 0 10 C0 6.7 0 3.4 0 0 Z " fill="#6BAEDC" transform="translate(117,233)"/>
<path d="M0 0 C5.875 1.875 5.875 1.875 7 3 C7.375 5.875 7.375 5.875 7 9 C4.875 11 4.875 11 2 12 C-1.3125 11.1875 -1.3125 11.1875 -4 10 C-4.8125 7.8125 -4.8125 7.8125 -5 5 C-2.5625 2.1875 -2.5625 2.1875 0 0 Z M-1 3 C-1.33 4.65 -1.66 6.3 -2 8 C0.475 8.495 0.475 8.495 3 9 C3.66 7.68 4.32 6.36 5 5 C4.34 4.34 3.68 3.68 3 3 C1.68 3 0.36 3 -1 3 Z " fill="#67ACDB" transform="translate(54,232)"/>
<path d="M0 0 C2 2 2 2 2.375 4.9375 C2 8 2 8 0.3125 9.9375 C-2.61449654 11.28233625 -3.98584989 11.03115662 -7 10 C-9 8 -9 8 -9.375 5.0625 C-9 2 -9 2 -7.3125 0.0625 C-4.38550346 -1.28233625 -3.01415011 -1.03115662 0 0 Z M-6 2 C-7.01111093 5.04913228 -7.01111093 5.04913228 -6 8 C-4.35 8 -2.7 8 -1 8 C0.01111093 4.95086772 0.01111093 4.95086772 -1 2 C-2.65 2 -4.3 2 -6 2 Z " fill="#73B2DD" transform="translate(112,233)"/>
<path d="M0 0 C0 0.66 0 1.32 0 2 C-1.65 2 -3.3 2 -5 2 C-5 2.66 -5 3.32 -5 4 C-3.35 4.33 -1.7 4.66 0 5 C0.33 5.99 0.66 6.98 1 8 C-0.125 9.5625 -0.125 9.5625 -2 11 C-5.1875 10.6875 -5.1875 10.6875 -8 10 C-8 9.01 -8 8.02 -8 7 C-6.35 7 -4.7 7 -3 7 C-5.475 6.01 -5.475 6.01 -8 5 C-7.625 2.5625 -7.625 2.5625 -7 0 C-4.3333581 -1.33332095 -2.83319697 -0.67102033 0 0 Z " fill="#7EB8E0" transform="translate(188,233)"/>
<path d="M0 0 C6.15234375 -0.09765625 6.15234375 -0.09765625 8 0 C9 1 9 1 9.09765625 3.06640625 C9.08605469 3.89011719 9.07445312 4.71382812 9.0625 5.5625 C9.05347656 6.38878906 9.04445312 7.21507812 9.03515625 8.06640625 C9.02355469 8.70449219 9.01195312 9.34257812 9 10 C7.68 9.67 6.36 9.34 5 9 C5 8.34 5 7.68 5 7 C4.01 7 3.02 7 2 7 C2 7.99 2 8.98 2 10 C1.34 10 0.68 10 0 10 C0 6.7 0 3.4 0 0 Z M2 2 C2 2.99 2 3.98 2 5 C3.65 4.67 5.3 4.34 7 4 C6.67 3.34 6.34 2.68 6 2 C4.68 2 3.36 2 2 2 Z " fill="#85BCE2" transform="translate(216,233)"/>
<path d="M0 0 C2.64 0 5.28 0 8 0 C8.79953138 3.28696233 9.09658936 4.71023192 8 8 C8.33 8.66 8.66 9.32 9 10 C6.03824877 9.38722388 4.61941217 8.74627478 2 7 C2 7.99 2 8.98 2 10 C1.34 10 0.68 10 0 10 C0 6.7 0 3.4 0 0 Z M2 2 C2 2.99 2 3.98 2 5 C3.32 5 4.64 5 6 5 C6 4.01 6 3.02 6 2 C4.68 2 3.36 2 2 2 Z " fill="#86BDE2" transform="translate(64,233)"/>
<path d="M0 0 C0 0.99 0 1.98 0 3 C-1.98 3 -3.96 3 -6 3 C-6 4.32 -6 5.64 -6 7 C-4.02 7 -2.04 7 0 7 C0 7.99 0 8.98 0 10 C-2.68973228 10.74714785 -4.51778598 11.1205535 -7.25 10.4375 C-9 9 -9 9 -9.875 6.0625 C-10 3 -10 3 -8 0 C-4.71023192 -1.09658936 -3.28696233 -0.79953138 0 0 Z " fill="#80B9E1" transform="translate(163,233)"/>
<path d="M0 0 C0.66 0 1.32 0 2 0 C2 1.32 2 2.64 2 4 C3.65 4 5.3 4 7 4 C7 2.68 7 1.36 7 0 C7.99 0 8.98 0 10 0 C10 3.3 10 6.6 10 10 C9.01 10 8.02 10 7 10 C7 8.68 7 7.36 7 6 C5.35 6 3.7 6 2 6 C2 7.32 2 8.64 2 10 C1.34 10 0.68 10 0 10 C0 6.7 0 3.4 0 0 Z " fill="#67ACDB" transform="translate(191,233)"/>
<path d="M0 0 C0.99 0 1.98 0 3 0 C4.32 3.3 5.64 6.6 7 10 C6.01 10 5.02 10 4 10 C4 9.34 4 8.68 4 8 C1.36 8.66 -1.28 9.32 -4 10 C-3.43768609 6.06380262 -2.38314183 3.20807554 0 0 Z M1 4 C0.67 4.66 0.34 5.32 0 6 C0.66 6 1.32 6 2 6 C1.67 5.34 1.34 4.68 1 4 Z " fill="#71B1DD" transform="translate(207,233)"/>
<path d="M0 0 C0.7425 0.185625 1.485 0.37125 2.25 0.5625 C4.94990963 0.99203108 6.44631077 0.85122974 9 0 C8.608125 0.721875 8.21625 1.44375 7.8125 2.1875 C6.64088949 5.06293369 6.64088949 5.06293369 8.375 7.8125 C8.91125 8.534375 9.4475 9.25625 10 10 C8.68 10 7.36 10 6 10 C5.34 9.34 4.68 8.68 4 8 C3.67 8.66 3.34 9.32 3 10 C2.01 10 1.02 10 0 10 C0.37125 9.0925 0.7425 8.185 1.125 7.25 C2.30359299 4.11902985 2.30359299 4.11902985 1.125 1.625 C0.75375 1.08875 0.3825 0.5525 0 0 Z " fill="#76B4DE" transform="translate(17,233)"/>
<path d="M0 0 C0.721875 0.391875 1.44375 0.78375 2.1875 1.1875 C-0.17203094 3.54703094 -1.59145617 3.67891413 -4.8125 4.1875 C-4.4825 5.1775 -4.1525 6.1675 -3.8125 7.1875 C-2.1625 7.1875 -0.5125 7.1875 1.1875 7.1875 C1.1875 8.1775 1.1875 9.1675 1.1875 10.1875 C-1.63072057 11.33566394 -2.66619738 11.24402601 -5.5625 10.125 C-7.8125 8.1875 -7.8125 8.1875 -8.4375 5.1875 C-7.8125 2.1875 -7.8125 2.1875 -5.625 0.1875 C-2.8125 -0.8125 -2.8125 -0.8125 0 0 Z " fill="#8ABFE3" transform="translate(98.8125,232.8125)"/>
<path d="M0 0 C2.64 0 5.28 0 8 0 C8 0.66 8 1.32 8 2 C6.02 2 4.04 2 2 2 C2 2.66 2 3.32 2 4 C3.65 4 5.3 4 7 4 C7 4.66 7 5.32 7 6 C5.35 6 3.7 6 2 6 C2 6.66 2 7.32 2 8 C3.98 8 5.96 8 8 8 C8 8.66 8 9.32 8 10 C5.36 10 2.72 10 0 10 C0 6.7 0 3.4 0 0 Z " fill="#5CA6D8" transform="translate(76,233)"/>
<path d="M0 0 C2.64 0 5.28 0 8 0 C8 0.66 8 1.32 8 2 C6.02 2 4.04 2 2 2 C2 2.66 2 3.32 2 4 C3.65 4 5.3 4 7 4 C7 4.66 7 5.32 7 6 C5.35 6 3.7 6 2 6 C2 6.66 2 7.32 2 8 C3.98 8 5.96 8 8 8 C8 8.66 8 9.32 8 10 C5.36 10 2.72 10 0 10 C0 6.7 0 3.4 0 0 Z " fill="#5BA5D8" transform="translate(228,233)"/>
<path d="M0 0 C2.64 0 5.28 0 8 0 C8 0.66 8 1.32 8 2 C6.02 2 4.04 2 2 2 C2 2.66 2 3.32 2 4 C3.65 4 5.3 4 7 4 C7 4.66 7 5.32 7 6 C5.35 6 3.7 6 2 6 C2 6.66 2 7.32 2 8 C3.98 8 5.96 8 8 8 C8 8.66 8 9.32 8 10 C5.36 10 2.72 10 0 10 C0 6.7 0 3.4 0 0 Z " fill="#5BA5D8" transform="translate(7,233)"/>
<path d="M0 0 C2.64 0 5.28 0 8 0 C8 0.66 8 1.32 8 2 C6.02 2 4.04 2 2 2 C2 2.66 2 3.32 2 4 C3.65 4 5.3 4 7 4 C7 4.66 7 5.32 7 6 C5.35 6 3.7 6 2 6 C2 6.66 2 7.32 2 8 C3.98 8 5.96 8 8 8 C8 8.66 8 9.32 8 10 C5.36 10 2.72 10 0 10 C0 6.7 0 3.4 0 0 Z " fill="#5BA5D8" transform="translate(143,233)"/>
<path d="M0 0 C2.64 0 5.28 0 8 0 C9.125 4.75 9.125 4.75 8 7 C6.02 7 4.04 7 2 7 C2 7.99 2 8.98 2 10 C1.34 10 0.68 10 0 10 C0 6.7 0 3.4 0 0 Z M2 2 C2 2.99 2 3.98 2 5 C3.32 5 4.64 5 6 5 C6 4.01 6 3.02 6 2 C4.68 2 3.36 2 2 2 Z " fill="#328FCE" transform="translate(29,233)"/>
<path d="M0 0 C0.8353125 0.7425 0.8353125 0.7425 1.6875 1.5 C4.38162983 3.24754367 5.85375007 3.26218749 9 3 C8.67 3.66 8.34 4.32 8 5 C9.65 5.33 11.3 5.66 13 6 C13 6.33 13 6.66 13 7 C11.78763672 7.19916016 11.78763672 7.19916016 10.55078125 7.40234375 C9.48214844 7.57894531 8.41351563 7.75554687 7.3125 7.9375 C6.25675781 8.11152344 5.20101562 8.28554687 4.11328125 8.46484375 C1.39750396 8.93167121 -1.30124235 9.44422616 -4 10 C-2.625 8.5 -2.625 8.5 -1 7 C-0.34 7 0.32 7 1 7 C0.67 4.69 0.34 2.38 0 0 Z " fill="#87BDE6" transform="translate(148,74)"/>
<path d="M0 0 C3.3 0 6.6 0 10 0 C10 0.66 10 1.32 10 2 C8.68 2 7.36 2 6 2 C6 4.64 6 7.28 6 10 C5.34 10 4.68 10 4 10 C4 7.36 4 4.72 4 2 C2.68 2 1.36 2 0 2 C0 1.34 0 0.68 0 0 Z " fill="#5EA7D8" transform="translate(164,233)"/>
<path d="M0 0 C0.598125 0.350625 1.19625 0.70125 1.8125 1.0625 C1.8125 3.0425 1.8125 5.0225 1.8125 7.0625 C-0.1675 8.0525 -0.1675 8.0525 -2.1875 9.0625 C-3.1775 8.4025 -4.1675 7.7425 -5.1875 7.0625 C-3.8675 6.4025 -2.5475 5.7425 -1.1875 5.0625 C-1.93900023 1.78476496 -1.93900023 1.78476496 -5.1875 0.0625 C-2.1875 -0.9375 -2.1875 -0.9375 0 0 Z " fill="#84BCE2" transform="translate(59.1875,233.9375)"/>
<path d="M0 0 C0.66 0 1.32 0 2 0 C2 2.64 2 5.28 2 8 C3.65 8 5.3 8 7 8 C7 8.66 7 9.32 7 10 C4.69 10 2.38 10 0 10 C0 6.7 0 3.4 0 0 Z " fill="#4D9ED5" transform="translate(41,233)"/>
<path d="M0 0 C1.98 0 3.96 0 6 0 C4.68 0.33 3.36 0.66 2 1 C2 2.65 2 4.3 2 6 C3.32 6.33 4.64 6.66 6 7 C4.68 7 3.36 7 2 7 C2 7.99 2 8.98 2 10 C1.34 10 0.68 10 0 10 C0 6.7 0 3.4 0 0 Z " fill="#2F8DCE" transform="translate(64,233)"/>
<path d="M0 0 C1.98 0 3.96 0 6 0 C4.68 0.33 3.36 0.66 2 1 C2 2.65 2 4.3 2 6 C3.32 6.33 4.64 6.66 6 7 C4.68 7 3.36 7 2 7 C2 7.99 2 8.98 2 10 C1.34 10 0.68 10 0 10 C0 6.7 0 3.4 0 0 Z " fill="#3590CF" transform="translate(216,233)"/>
<path d="M0 0 C0.391875 0.66 0.78375 1.32 1.1875 2 C2.85416667 4.29166667 2.85416667 4.29166667 5.6875 4.25 C6.8321875 4.12625 6.8321875 4.12625 8 4 C8 4.99 8 5.98 8 7 C5.39417629 7.93065133 4.35801776 8.14917407 1.75 7.0625 C1.1725 6.711875 0.595 6.36125 0 6 C0 4.02 0 2.04 0 0 Z " fill="#6CAFDC" transform="translate(92,236)"/>
<path d="M0 0 C1.125 4.75 1.125 4.75 0 7 C-2.97 6.505 -2.97 6.505 -6 6 C-4.68 5.67 -3.36 5.34 -2 5 C-2 4.01 -2 3.02 -2 2 C-3.32 1.67 -4.64 1.34 -6 1 C-3.92446352 0.4465236 -2.15634036 0 0 0 Z " fill="#8BBFE3" transform="translate(37,233)"/>
<path d="M0 0 C0.33 0.99 0.66 1.98 1 3 C0.236875 3.45375 -0.52625 3.9075 -1.3125 4.375 C-3.23632814 5.53824492 -5.12941224 6.7529415 -7 8 C-5.98823563 4.59679258 -5.35156418 3.24274669 -2.375 1.1875 C-1.59125 0.795625 -0.8075 0.40375 0 0 Z " fill="#9FCAEB" transform="translate(112,5)"/>
<path d="M0 0 C1.98 0.99 1.98 0.99 4 2 C4 3.98 4 5.96 4 8 C3.34 8 2.68 8 2 8 C1.34 5.36 0.68 2.72 0 0 Z " fill="#62A9D9" transform="translate(110,233)"/>
<path d="M0 0 C0 0.99 0 1.98 0 3 C-1.32 3 -2.64 3 -4 3 C-4.33 3.66 -4.66 4.32 -5 5 C-5.66 5 -6.32 5 -7 5 C-5.22678182 1.07358831 -4.52021524 0 0 0 Z " fill="#83BBE2" transform="translate(110,232)"/>
<path d="M0 0 C0.66 0.33 1.32 0.66 2 1 C-0.31 3.31 -2.62 5.62 -5 8 C-5.66 7.67 -6.32 7.34 -7 7 C-4.78071806 4.09197539 -3.07030857 2.04687238 0 0 Z " fill="#7CB6E4" transform="translate(79,49)"/>
<path d="M0 0 C0.763125 0.20625 1.52625 0.4125 2.3125 0.625 C2.3125 1.615 2.3125 2.605 2.3125 3.625 C-0.3275 2.965 -2.9675 2.305 -5.6875 1.625 C-2.6875 -0.375 -2.6875 -0.375 0 0 Z " fill="#8FC2E4" transform="translate(160.6875,232.375)"/>
<path d="M0 0 C0 0.66 0 1.32 0 2 C-1.65 2 -3.3 2 -5 2 C-5.33 2.66 -5.66 3.32 -6 4 C-6.33 2.68 -6.66 1.36 -7 0 C-4.3333581 -1.33332095 -2.83319697 -0.67102033 0 0 Z " fill="#8CC0E4" transform="translate(188,233)"/>
<path d="M0 0 C2.31 0.33 4.62 0.66 7 1 C7 1.66 7 2.32 7 3 C5.02 3.99 5.02 3.99 3 5 C1.5 3.625 1.5 3.625 0 2 C0 1.34 0 0.68 0 0 Z " fill="#9DC9EA" transform="translate(117,104)"/>
<path d="M0 0 C0.99 0.495 0.99 0.495 2 1 C1.01 1.495 1.01 1.495 0 2 C0 1.34 0 0.68 0 0 Z " fill="#E8F3FA" transform="translate(142,84)"/>
<path d="" fill="#F8FCFE" transform="translate(0,0)"/>
</svg>
