<?xml version="1.0" encoding="UTF-8"?>
<svg version="1.1" xmlns="http://www.w3.org/2000/svg" width="117" height="196">
<path d="M0 0 C0.495 1.485 0.495 1.485 1 3 C1.7425 3.020625 2.485 3.04125 3.25 3.0625 C6.66900089 4.22806849 7.50952044 5.89165268 9.17956543 8.99832153 C10.50925168 12.24246121 10.44648218 15.20648412 10.390625 18.68359375 C10.38496521 19.38396255 10.37930542 20.08433136 10.37347412 20.80592346 C10.3512922 23.01717945 10.30113806 25.22674373 10.25 27.4375 C10.22991115 28.94724203 10.21166458 30.45700975 10.1953125 31.96679688 C10.15148947 35.64506999 10.08259341 39.32236956 10 43 C11.64440063 42.98151001 11.64440063 42.98151001 13.32202148 42.96264648 C14.77587697 42.95267652 16.22973456 42.94300819 17.68359375 42.93359375 C18.40430054 42.92469116 19.12500732 42.91578857 19.86755371 42.90661621 C27.65458213 42.86882589 33.0944988 43.92427943 38.875 49.25 C43.87656512 54.79697941 45.36260943 59.94271193 45.10546875 67.27734375 C45.05326172 68.13005859 45.05326172 68.13005859 45 69 C44.21496094 68.77183594 43.42992188 68.54367188 42.62109375 68.30859375 C35.31591979 66.30975474 29.92108844 64.91942246 22.9375 68.625 C17.5598277 72.97290526 13.79671145 77.62971281 11 84 C4.44692737 83.10055866 4.44692737 83.10055866 1.5 82.4375 C-5.1132922 81.28017386 -11.00335457 82.00730266 -17 85 C-21.3367557 88.46520431 -22.84716238 92.759829 -24 98 C-21.41206193 96.56739143 -19.08545034 95.11158381 -17 93 C-16.41439551 89.28841143 -16.41439551 89.28841143 -17 86 C-16.278125 86.680625 -15.55625 87.36125 -14.8125 88.0625 C-12.1794348 90.31737069 -12.1794348 90.31737069 -9.1875 89.75 C-8.465625 89.5025 -7.74375 89.255 -7 89 C-7 87.02 -7 85.04 -7 83 C-6.34 83 -5.68 83 -5 83 C-4.01 84.485 -4.01 84.485 -3 86 C0.58357241 86.25015873 0.58357241 86.25015873 4 86 C2.10020863 87.5040015 0.21010139 88.88246377 -1.90625 90.06640625 C-6.69592425 92.77400195 -10.43822088 95.47906108 -12 101 C-12.45993423 106.13926505 -12.64167791 111.07496626 -11 116 C-10.01 112.7 -9.02 109.4 -8 106 C-8.99 105.01 -9.98 104.02 -11 103 C-11 102.34 -11 101.68 -11 101 C-8.03 101.495 -8.03 101.495 -5 102 C-2.70113419 99.3084494 -2.70113419 99.3084494 -3.375 97 C-3.58125 96.34 -3.7875 95.68 -4 95 C-4 94.01 -4 93.02 -4 92 C-2.68 92.66 -1.36 93.32 0 94 C0.47566406 93.36191406 0.95132813 92.72382812 1.44140625 92.06640625 C4.97006102 87.90090402 7.34886527 85.29019944 12.8671875 84.3203125 C15.54962269 84.16794168 18.14542673 84.22014667 20.83984375 84.29296875 C22.40412109 84.14794922 22.40412109 84.14794922 24 84 C25.53032413 82.10557447 25.53032413 82.10557447 26 80 C28 83.75 28 83.75 28 86 C29.98 86 31.96 86 34 86 C34.99 84.02 34.99 84.02 36 82 C36.66 82 37.32 82 38 82 C38.04125 82.928125 38.0825 83.85625 38.125 84.8125 C38.41375 85.864375 38.7025 86.91625 39 88 C40.98 88.99 42.96 89.98 45 91 C45 113.77 45 136.54 45 160 C37.28372093 158.89767442 37.28372093 158.89767442 33.625 156.4375 C28.94088959 153.73604003 25.33533693 152.75112336 20 154 C16.87824951 155.43286696 13.87481967 157.03319765 10.83984375 158.640625 C6.92851329 160.51289873 4.20039739 161.206744 0 160 C-2.0001148 159.04258604 -3.97792161 158.03785993 -5.9375 157 C-11.19088625 154.23852037 -15.11131907 152.47402953 -21 154 C-24.13969989 155.43387869 -27.16235121 157.02005021 -30.203125 158.65234375 C-33.73444674 160.35388844 -36.14091592 160.69463514 -40 160 C-43.73701843 158.49081948 -46.24890406 156.88865074 -49 154 C-38.40686141 143.75889925 -26.35252064 137.98002867 -12.75390625 132.7644043 C-2.03993338 128.54770571 8.61000543 122.38504153 14.12890625 111.84375 C17.06685971 104.36053221 16.12923006 97.26290435 13 90 C13.04640625 90.76183594 13.0928125 91.52367188 13.140625 92.30859375 C13.46008193 101.44734374 12.1156235 107.88974012 5.875 114.75 C-1.69412389 121.69370899 -11.34927063 124.20957446 -21 127 C-33.52097451 130.84166263 -46.06823062 135.56487085 -56.3359375 143.828125 C-58 145 -58 145 -60 145 C-60.06972357 134.61166222 -60.12292438 124.22338076 -60.15543652 113.83485603 C-60.17104617 109.01026223 -60.19219796 104.18582934 -60.22631836 99.36132812 C-60.25908023 94.69937447 -60.27688831 90.03757494 -60.28463173 85.37551498 C-60.29014517 83.60304211 -60.30091111 81.83057701 -60.31719017 80.05817032 C-60.4973521 59.61695943 -60.4973521 59.61695943 -54.9375 50.6875 C-46.42862311 42.90278285 -38.65570949 42.44246209 -27.5859375 42.82421875 C-26.40257812 42.88222656 -25.21921875 42.94023438 -24 43 C-24.01571045 42.0620459 -24.0314209 41.1240918 -24.04760742 40.15771484 C-24.09891965 36.65765795 -24.13643872 33.1580043 -24.16479492 29.65771484 C-24.17982543 28.14658273 -24.20025564 26.63549382 -24.22631836 25.12451172 C-24.26295689 22.94487813 -24.27978338 20.76582425 -24.29296875 18.5859375 C-24.3086792 17.2767334 -24.32438965 15.9675293 -24.34057617 14.61865234 C-23.91481827 10.09493645 -22.48264556 6.8696117 -19.66796875 3.3203125 C-13.83470559 -1.38939338 -7.14858241 -0.44616672 0 0 Z M-8.125 6.0625 C-8.84042969 6.10310547 -9.55585937 6.14371094 -10.29296875 6.18554688 C-13.01877188 6.39698768 -15.35941224 6.59815596 -17.70776367 8.07128906 C-19.6950585 11.03740075 -19.36847177 14.06738159 -19.29296875 17.51171875 C-19.28872391 18.23994339 -19.28447906 18.96816803 -19.28010559 19.71846008 C-19.26332733 22.04185127 -19.22567855 24.3643715 -19.1875 26.6875 C-19.17245197 28.26365934 -19.15876377 29.83983229 -19.14648438 31.41601562 C-19.11597938 35.27794833 -19.05726193 39.13800063 -19 43 C-11.08 43 -3.16 43 5 43 C5.11493433 38.37197778 5.21440625 33.74891914 5.2746582 29.12060547 C5.29977448 27.54719249 5.33387472 25.97389588 5.37719727 24.40087891 C5.43798399 22.13675228 5.46623582 19.87416978 5.48828125 17.609375 C5.51408768 16.90818542 5.5398941 16.20699585 5.56648254 15.48455811 C5.56859642 11.78814615 5.26643915 10.2862849 2.7121582 7.54174805 C-0.95719139 5.45587689 -4.06350507 5.67410568 -8.125 6.0625 Z M16.25 51 C15.1775 51.66 14.105 52.32 13 53 C13 53.66 13 54.32 13 55 C12.401875 55.20625 11.80375 55.4125 11.1875 55.625 C7.98431281 57.63843195 7.27203249 59.43830904 6 63 C5.4033629 69.17303525 5.4033629 69.17303525 7 75 C6.278125 74.2575 5.55625 73.515 4.8125 72.75 C3.884375 71.8425 2.95625 70.935 2 70 C1.278125 69.278125 0.55625 68.55625 -0.1875 67.8125 C-4.27798404 65.17641029 -8.12495922 64.07014447 -13 64 C-16.54593055 64.95523027 -19.73952394 66.32120169 -23 68 C-23 68.66 -23 69.32 -23 70 C-21.40012764 70.27615058 -19.794667 70.52007625 -18.1875 70.75 C-17.29417969 70.88921875 -16.40085937 71.0284375 -15.48046875 71.171875 C-12.83228781 71.27402528 -12.83228781 71.27402528 -11.17578125 69.015625 C-10.78777344 68.35046875 -10.39976563 67.6853125 -10 67 C-10.061875 67.78375 -10.12375 68.5675 -10.1875 69.375 C-10.125625 70.24125 -10.06375 71.1075 -10 72 C-7.23851844 74.31140296 -7.23851844 74.31140296 -4.4375 73.6875 C-2.01885389 73.08760162 -2.01885389 73.08760162 0 72 C-0.13921875 73.13501953 -0.13921875 73.13501953 -0.28125 74.29296875 C-0.2887504 77.13615562 -0.2887504 77.13615562 1.96875 78.80078125 C2.8040625 79.29964844 3.639375 79.79851562 4.5 80.3125 C5.75296875 81.08013672 5.75296875 81.08013672 7.03125 81.86328125 C7.6809375 82.23839844 8.330625 82.61351562 9 83 C10.5478831 80.20625977 11.30760664 77.92393362 11.625 74.75 C11.810625 72.89375 11.810625 72.89375 12 71 C10.68 70.34 9.36 69.68 8 69 C8 68.34 8 67.68 8 67 C9.98 67 11.96 67 14 67 C14.66 65.02 15.32 63.04 16 61 C15.01 60.01 14.02 59.02 13 58 C13.75667969 58.0928125 14.51335937 58.185625 15.29296875 58.28125 C18.13615562 58.2887504 18.13615562 58.2887504 19.80078125 56.03125 C20.29964844 55.1959375 20.79851562 54.360625 21.3125 53.5 C22.08013672 52.24703125 22.08013672 52.24703125 22.86328125 50.96875 C23.23839844 50.3190625 23.61351562 49.669375 24 49 C20.1335864 49 19.30980686 49.11704193 16.25 51 Z M11 86 C12 88 12 88 12 88 Z " fill="#4C9CDA" transform="translate(66,5)"/>
<path d="M0 0 C2 3.75 2 3.75 2 6 C3.98 6 5.96 6 8 6 C8.66 4.68 9.32 3.36 10 2 C10.66 2 11.32 2 12 2 C12.04125 2.928125 12.0825 3.85625 12.125 4.8125 C12.41375 5.864375 12.7025 6.91625 13 8 C14.98 8.99 16.96 9.98 19 11 C19 33.77 19 56.54 19 80 C11.28372093 78.89767442 11.28372093 78.89767442 7.625 76.4375 C2.94088959 73.73604003 -0.66466307 72.75112336 -6 74 C-9.12175049 75.43286696 -12.12518033 77.03319765 -15.16015625 78.640625 C-19.07148671 80.51289873 -21.79960261 81.206744 -26 80 C-28.0001148 79.04258604 -29.97792161 78.03785993 -31.9375 77 C-37.19088625 74.23852037 -41.11131907 72.47402953 -47 74 C-50.13969989 75.43387869 -53.16235121 77.02005021 -56.203125 78.65234375 C-59.73444674 80.35388844 -62.14091592 80.69463514 -66 80 C-69.73701843 78.49081948 -72.24890406 76.88865074 -75 74 C-64.40686141 63.75889925 -52.35252064 57.98002867 -38.75390625 52.7644043 C-28.03993338 48.54770571 -17.38999457 42.38504153 -11.87109375 31.84375 C-9.40560948 25.56395151 -9.46880279 19.27292206 -11.74609375 12.91796875 C-12.47234599 11.26739548 -13.23377161 9.63239961 -14 8 C-14 7.01 -14 6.02 -14 5 C-13.15695313 4.97421875 -12.31390625 4.9484375 -11.4453125 4.921875 C-10.34960938 4.86515625 -9.25390625 4.8084375 -8.125 4.75 C-7.03445312 4.70359375 -5.94390625 4.6571875 -4.8203125 4.609375 C-1.8667935 4.31153872 -1.8667935 4.31153872 -0.6171875 1.953125 C-0.41351563 1.30859375 -0.20984375 0.6640625 0 0 Z " fill="#F78C1B" transform="translate(92,85)"/>
<path d="M0 0 C4.13708499 0.31823731 6.85179611 1.41322074 10.3125 3.5625 C14.97124153 6.25143806 18.69356724 7.04435113 24 6 C26.83920467 4.91767907 29.38456315 3.53453896 32 2 C36.02460159 -0.20376242 39.46575191 -0.88473133 44 0 C46.00837074 0.93997216 47.98645448 1.94618688 49.9375 3 C55.19088625 5.76147963 59.11131907 7.52597047 65 6 C68.14060282 4.56570895 71.16597172 2.97811384 74.2109375 1.3515625 C77.79684461 -0.38614599 80.0788978 -0.75405811 84 0 C86.78026311 1.15556229 89.39866919 2.48649844 92 4 C92 4.99 92 5.98 92 7 C87.6526055 10.89766403 83.85512406 11.13222307 78.17700195 11.17700195 C77.48715714 11.18357315 76.79731232 11.19014435 76.08656311 11.19691467 C73.80380132 11.21662151 71.52110533 11.22830624 69.23828125 11.23828125 C68.06586915 11.24439454 68.06586915 11.24439454 66.86977196 11.25063133 C62.73032268 11.27148395 58.59090644 11.28578744 54.45141602 11.29516602 C50.18887983 11.30621069 45.92686852 11.34058996 41.6645174 11.38033772 C38.37610446 11.4065664 35.0878152 11.41486351 31.79930687 11.41844749 C30.22891902 11.4232997 28.65853618 11.43487458 27.08825111 11.45348549 C16.95355289 11.56610615 9.91505805 11.30067579 2 4.375 C0 2 0 2 0 0 Z " fill="#F7942C" transform="translate(10,169)"/>
<path d="M0 0 C2.67605641 1.11104128 5.1512377 2.41764342 7.69140625 3.80859375 C11.49387674 5.77095162 14.83196374 6.55034767 19.03125 5.484375 C22.12449441 4.39943106 24.65596491 3.25105264 27.3125 1.3125 C31.75178036 -0.85552064 36.16809915 -0.74545455 41 0 C43.31401724 1.05359976 45.21967207 2.26217951 47.2734375 3.75390625 C49.37715388 5.2721993 51.55483212 6.15947354 54 7 C53.01 8.65 52.02 10.3 51 12 C50.3709375 11.65066406 49.741875 11.30132812 49.09375 10.94140625 C43.60907539 8.02560785 39.25782662 6 33 6 C29.43690564 7.22865323 26.45624289 8.72003277 23.25 10.6875 C18.47024991 12.61778369 14.08263587 12.8048111 9 12 C6.78328448 10.90537411 4.9027993 9.62705205 2.89453125 8.19140625 C-0.47378586 6.07318621 -3.01259087 6 -7 6 C-10.89350103 6.95351046 -14.18452198 8.4828676 -17.5625 10.625 C-20.81238539 12.45826868 -23.27203981 12.87144965 -27 13 C-30.59475468 11.73868257 -33.79839444 10.1027793 -37.1875 8.375 C-39.51654857 7.23635403 -41.47320299 6.4859225 -44 6 C-43.09251815 3.65567188 -42.50783807 2.30094108 -40.3125 1 C-37.24504485 1 -35.47277943 2.43270214 -32.91796875 3.99609375 C-29.02985209 6.03121795 -25.15724437 6.52333151 -20.890625 5.48828125 C-17.81647706 4.39614974 -15.29191304 3.2074119 -12.625 1.3125 C-8.45221447 -0.77389276 -4.56584885 -0.73664131 0 0 Z " fill="#F89C3C" transform="translate(55,161)"/>
<path d="M0 0 C2 1.375 2 1.375 4 3 C4 3.66 4 4.32 4 5 C4.93972656 4.7834375 4.93972656 4.7834375 5.8984375 4.5625 C7.12433594 4.2840625 7.12433594 4.2840625 8.375 4 C9.18710938 3.814375 9.99921875 3.62875 10.8359375 3.4375 C13 3 13 3 15 3 C15 8.28 15 13.56 15 19 C13.01432292 17.47005208 11.02864583 15.94010417 9.04296875 14.41015625 C4.08190594 10.98578976 -1.86341666 11.45594708 -7.58984375 12.44921875 C-9.73874718 12.92788444 -11.87189261 13.43652949 -14 14 C-12.625 12.5 -12.625 12.5 -11 11 C-10.34 11 -9.68 11 -9 11 C-9.33 8.69 -9.66 6.38 -10 4 C-9.484375 4.515625 -8.96875 5.03125 -8.4375 5.5625 C-5.0289729 7.57265701 -2.76893143 6.79727396 1 6 C0.67 4.02 0.34 2.04 0 0 Z " fill="#5BA4DD" transform="translate(96,72)"/>
<path d="M0 0 C1 1 1 1 1.125 3.5 C1 6 1 6 0 7 C-1.89364569 7.10013057 -3.79121458 7.12966491 -5.6875 7.125 C-6.77546875 7.12242188 -7.8634375 7.11984375 -8.984375 7.1171875 C-12 7 -12 7 -15.4375 6.25 C-18.21924214 5.70408352 -18.21924214 5.70408352 -20.875 7.9375 C-21.57625 8.618125 -22.2775 9.29875 -23 10 C-21.93880871 5.87314497 -19.94931791 3.34086684 -16.4140625 0.94140625 C-11.25355665 -1.07102403 -5.43463947 -0.50995277 0 0 Z " fill="#58A2DC" transform="translate(66,5)"/>
<path d="M0 0 C4.62 0.66 9.24 1.32 14 2 C14 7 14 7 12.375 8.8125 C9.2924361 10.35378195 7.40755267 10.49693476 4 10 C1.625 8.375 1.625 8.375 0 6 C0 4.02 0 2.04 0 0 Z " fill="#F89C3B" transform="translate(21,182)"/>
<path d="M0 0 C-0.59859155 6.34507042 -0.59859155 6.34507042 -2.1875 8.9375 C-4.92243127 10.54073557 -6.8903393 10.38077478 -10 10 C-12.3125 8.8125 -12.3125 8.8125 -14 7 C-14.38363363 5.34418777 -14.722801 3.6769167 -15 2 C-12.87528825 1.6648342 -10.75022095 1.33192171 -8.625 1 C-7.44164063 0.814375 -6.25828125 0.62875 -5.0390625 0.4375 C-2 0 -2 0 0 0 Z " fill="#F89B3A" transform="translate(97,182)"/>
<path d="M0 0 C0.8353125 0.7425 0.8353125 0.7425 1.6875 1.5 C4.38162983 3.24754367 5.85375007 3.26218749 9 3 C8.67 3.66 8.34 4.32 8 5 C9.65 5.33 11.3 5.66 13 6 C13 6.33 13 6.66 13 7 C11.78763672 7.19916016 11.78763672 7.19916016 10.55078125 7.40234375 C9.48214844 7.57894531 8.41351563 7.75554687 7.3125 7.9375 C6.25675781 8.11152344 5.20101562 8.28554687 4.11328125 8.46484375 C1.39750396 8.93167121 -1.30124235 9.44422616 -4 10 C-2.625 8.5 -2.625 8.5 -1 7 C-0.34 7 0.32 7 1 7 C0.67 4.69 0.34 2.38 0 0 Z " fill="#87BDE6" transform="translate(86,76)"/>
<path d="M0 0 C0.33 0.99 0.66 1.98 1 3 C0.236875 3.45375 -0.52625 3.9075 -1.3125 4.375 C-3.23632814 5.53824492 -5.12941224 6.7529415 -7 8 C-5.98823563 4.59679258 -5.35156418 3.24274669 -2.375 1.1875 C-1.59125 0.795625 -0.8075 0.40375 0 0 Z " fill="#9FCAEB" transform="translate(50,7)"/>
<path d="M0 0 C0.66 0.33 1.32 0.66 2 1 C-0.31 3.31 -2.62 5.62 -5 8 C-5.66 7.67 -6.32 7.34 -7 7 C-4.78071806 4.09197539 -3.07030857 2.04687238 0 0 Z " fill="#7CB6E3" transform="translate(17,51)"/>
<path d="M0 0 C2.31 0.33 4.62 0.66 7 1 C7 1.66 7 2.32 7 3 C5.02 3.99 5.02 3.99 3 5 C1.5 3.625 1.5 3.625 0 2 C0 1.34 0 0.68 0 0 Z " fill="#9DC9EA" transform="translate(55,106)"/>
<path d="M0 0 C0.99 0.495 0.99 0.495 2 1 C1.01 1.495 1.01 1.495 0 2 C0 1.34 0 0.68 0 0 Z " fill="#E8F2FA" transform="translate(80,86)"/>
<path d="" fill="#F7FAFE" transform="translate(0,0)"/>
</svg>
