<?xml version="1.0" encoding="UTF-8"?>
<svg version="1.1" xmlns="http://www.w3.org/2000/svg" width="117" height="172">
<path d="M0 0 C0.73798828 -0.01160156 1.47597656 -0.02320312 2.23632812 -0.03515625 C7.02602102 -0.00961122 10.52347258 0.55541385 14.5625 3.375 C17.45762722 8.01715715 17.92052975 11.53918768 17.85546875 16.9609375 C17.85122391 17.66272125 17.84697906 18.364505 17.84260559 19.08755493 C17.82593599 21.3087756 17.78830872 23.52905788 17.75 25.75 C17.73493788 27.26430973 17.72125216 28.77863381 17.70898438 30.29296875 C17.67607183 33.98727932 17.62437259 37.68104793 17.5625 41.375 C19.20690063 41.35651001 19.20690063 41.35651001 20.88452148 41.33764648 C22.33837697 41.32767652 23.79223456 41.31800819 25.24609375 41.30859375 C25.96680054 41.29969116 26.68750732 41.29078857 27.43005371 41.28161621 C35.21708213 41.24382589 40.6569988 42.29927943 46.4375 47.625 C51.43906512 53.17197941 52.92510943 58.31771193 52.66796875 65.65234375 C52.61576172 66.50505859 52.61576172 66.50505859 52.5625 67.375 C51.77746094 67.14683594 50.99242188 66.91867188 50.18359375 66.68359375 C42.87841979 64.68475474 37.48358844 63.29442246 30.5 67 C25.1223277 71.34790526 21.35921145 76.00471281 18.5625 82.375 C12.00942737 81.47555866 12.00942737 81.47555866 9.0625 80.8125 C2.4492078 79.65517386 -3.44085457 80.38230266 -9.4375 83.375 C-13.7742557 86.84020431 -15.28466238 91.134829 -16.4375 96.375 C-13.84956193 94.94239143 -11.52295034 93.48658381 -9.4375 91.375 C-8.85189551 87.66341143 -8.85189551 87.66341143 -9.4375 84.375 C-8.715625 85.055625 -7.99375 85.73625 -7.25 86.4375 C-4.6169348 88.69237069 -4.6169348 88.69237069 -1.625 88.125 C-0.903125 87.8775 -0.18125 87.63 0.5625 87.375 C0.5625 85.395 0.5625 83.415 0.5625 81.375 C1.2225 81.375 1.8825 81.375 2.5625 81.375 C3.5525 82.86 3.5525 82.86 4.5625 84.375 C8.14607241 84.62515873 8.14607241 84.62515873 11.5625 84.375 C9.66270863 85.8790015 7.77260139 87.25746377 5.65625 88.44140625 C0.86657575 91.14900195 -2.87572088 93.85406108 -4.4375 99.375 C-4.89743423 104.51426505 -5.07917791 109.44996626 -3.4375 114.375 C-2.4475 111.075 -1.4575 107.775 -0.4375 104.375 C-1.4275 103.385 -2.4175 102.395 -3.4375 101.375 C-3.4375 100.715 -3.4375 100.055 -3.4375 99.375 C-0.4675 99.87 -0.4675 99.87 2.5625 100.375 C4.86136581 97.6834494 4.86136581 97.6834494 4.1875 95.375 C3.98125 94.715 3.775 94.055 3.5625 93.375 C3.5625 92.385 3.5625 91.395 3.5625 90.375 C4.8825 91.035 6.2025 91.695 7.5625 92.375 C8.03816406 91.73691406 8.51382813 91.09882812 9.00390625 90.44140625 C12.53256102 86.27590402 14.91136527 83.66519944 20.4296875 82.6953125 C23.11212269 82.54294168 25.70792673 82.59514667 28.40234375 82.66796875 C29.96662109 82.52294922 29.96662109 82.52294922 31.5625 82.375 C33.09282413 80.48057447 33.09282413 80.48057447 33.5625 78.375 C35.5625 82.125 35.5625 82.125 35.5625 84.375 C37.5425 84.375 39.5225 84.375 41.5625 84.375 C42.5525 82.395 42.5525 82.395 43.5625 80.375 C44.2225 80.375 44.8825 80.375 45.5625 80.375 C45.60375 81.303125 45.645 82.23125 45.6875 83.1875 C45.97625 84.239375 46.265 85.29125 46.5625 86.375 C48.5425 87.365 50.5225 88.355 52.5625 89.375 C52.5625 112.145 52.5625 134.915 52.5625 158.375 C44.84622093 157.27267442 44.84622093 157.27267442 41.1875 154.8125 C36.50338959 152.11104003 32.89783693 151.12612336 27.5625 152.375 C24.44074951 153.80786696 21.43731967 155.40819765 18.40234375 157.015625 C14.49101329 158.88789873 11.76289739 159.581744 7.5625 158.375 C5.5623852 157.41758604 3.58457839 156.41285993 1.625 155.375 C-3.62838625 152.61352037 -7.54881907 150.84902953 -13.4375 152.375 C-16.57719989 153.80887869 -19.59985121 155.39505021 -22.640625 157.02734375 C-26.17194674 158.72888844 -28.57841592 159.06963514 -32.4375 158.375 C-36.17451843 156.86581948 -38.68640406 155.26365074 -41.4375 152.375 C-30.84436141 142.13389925 -18.79002064 136.35502867 -5.19140625 131.1394043 C5.52256662 126.92270571 16.17250543 120.76004153 21.69140625 110.21875 C24.62935971 102.73553221 23.69173006 95.63790435 20.5625 88.375 C20.60890625 89.13683594 20.6553125 89.89867188 20.703125 90.68359375 C21.02258193 99.82234374 19.6781235 106.26474012 13.4375 113.125 C5.86837611 120.06870899 -3.78677063 122.58457446 -13.4375 125.375 C-25.95847451 129.21666263 -38.50573062 133.93987085 -48.7734375 142.203125 C-50.4375 143.375 -50.4375 143.375 -52.4375 143.375 C-52.50722357 132.98666222 -52.56042438 122.59838076 -52.59293652 112.20985603 C-52.60854617 107.38526223 -52.62969796 102.56082934 -52.66381836 97.73632812 C-52.69658023 93.07437447 -52.71438831 88.41257494 -52.72213173 83.75051498 C-52.72764517 81.97804211 -52.73841111 80.20557701 -52.75469017 78.43317032 C-52.9348521 57.99195943 -52.9348521 57.99195943 -47.375 49.0625 C-38.86612311 41.27778285 -31.09320949 40.81746209 -20.0234375 41.19921875 C-18.84007812 41.25722656 -17.65671875 41.31523438 -16.4375 41.375 C-16.45321045 40.4370459 -16.4689209 39.4990918 -16.48510742 38.53271484 C-16.53641965 35.03265795 -16.57393872 31.5330043 -16.60229492 28.03271484 C-16.61732543 26.52158273 -16.63775564 25.01049382 -16.66381836 23.49951172 C-16.70045689 21.31987813 -16.71728338 19.14082425 -16.73046875 16.9609375 C-16.7461792 15.6517334 -16.76188965 14.3425293 -16.77807617 12.99365234 C-16.32167599 8.14435953 -15.0062583 4.71964997 -11.27734375 1.5234375 C-7.43858394 -0.0289633 -4.10161486 -0.06414341 0 0 Z M-0.5625 4.4375 C-1.27792969 4.47810547 -1.99335937 4.51871094 -2.73046875 4.56054688 C-5.45627188 4.77198768 -7.79691224 4.97315596 -10.14526367 6.44628906 C-12.1325585 9.41240075 -11.80597177 12.44238159 -11.73046875 15.88671875 C-11.72622391 16.61494339 -11.72197906 17.34316803 -11.71760559 18.09346008 C-11.70082733 20.41685127 -11.66317855 22.7393715 -11.625 25.0625 C-11.60995197 26.63865934 -11.59626377 28.21483229 -11.58398438 29.79101562 C-11.55347938 33.65294833 -11.49476193 37.51300063 -11.4375 41.375 C-3.5175 41.375 4.4025 41.375 12.5625 41.375 C12.67743433 36.74697778 12.77690625 32.12391914 12.8371582 27.49560547 C12.86227448 25.92219249 12.89637472 24.34889588 12.93969727 22.77587891 C13.00048399 20.51175228 13.02873582 18.24916978 13.05078125 15.984375 C13.07658768 15.28318542 13.1023941 14.58199585 13.12898254 13.85955811 C13.13109642 10.16314615 12.82893915 8.6612849 10.2746582 5.91674805 C6.60530861 3.83087689 3.49899493 4.04910568 -0.5625 4.4375 Z M23.8125 49.375 C22.74 50.035 21.6675 50.695 20.5625 51.375 C20.5625 52.035 20.5625 52.695 20.5625 53.375 C19.964375 53.58125 19.36625 53.7875 18.75 54 C15.54681281 56.01343195 14.83453249 57.81330904 13.5625 61.375 C12.9658629 67.54803525 12.9658629 67.54803525 14.5625 73.375 C13.840625 72.6325 13.11875 71.89 12.375 71.125 C11.446875 70.2175 10.51875 69.31 9.5625 68.375 C8.840625 67.653125 8.11875 66.93125 7.375 66.1875 C3.28451596 63.55141029 -0.56245922 62.44514447 -5.4375 62.375 C-8.98343055 63.33023027 -12.17702394 64.69620169 -15.4375 66.375 C-15.4375 67.035 -15.4375 67.695 -15.4375 68.375 C-13.83762764 68.65115058 -12.232167 68.89507625 -10.625 69.125 C-9.73167969 69.26421875 -8.83835937 69.4034375 -7.91796875 69.546875 C-5.26978781 69.64902528 -5.26978781 69.64902528 -3.61328125 67.390625 C-3.22527344 66.72546875 -2.83726563 66.0603125 -2.4375 65.375 C-2.499375 66.15875 -2.56125 66.9425 -2.625 67.75 C-2.563125 68.61625 -2.50125 69.4825 -2.4375 70.375 C0.32398156 72.68640296 0.32398156 72.68640296 3.125 72.0625 C5.54364611 71.46260162 5.54364611 71.46260162 7.5625 70.375 C7.42328125 71.51001953 7.42328125 71.51001953 7.28125 72.66796875 C7.2737496 75.51115562 7.2737496 75.51115562 9.53125 77.17578125 C10.3665625 77.67464844 11.201875 78.17351562 12.0625 78.6875 C13.31546875 79.45513672 13.31546875 79.45513672 14.59375 80.23828125 C15.2434375 80.61339844 15.893125 80.98851562 16.5625 81.375 C18.1103831 78.58125977 18.87010664 76.29893362 19.1875 73.125 C19.373125 71.26875 19.373125 71.26875 19.5625 69.375 C18.2425 68.715 16.9225 68.055 15.5625 67.375 C15.5625 66.715 15.5625 66.055 15.5625 65.375 C17.5425 65.375 19.5225 65.375 21.5625 65.375 C22.2225 63.395 22.8825 61.415 23.5625 59.375 C22.5725 58.385 21.5825 57.395 20.5625 56.375 C21.31917969 56.4678125 22.07585937 56.560625 22.85546875 56.65625 C25.69865562 56.6637504 25.69865562 56.6637504 27.36328125 54.40625 C27.86214844 53.5709375 28.36101562 52.735625 28.875 51.875 C29.64263672 50.62203125 29.64263672 50.62203125 30.42578125 49.34375 C30.80089844 48.6940625 31.17601562 48.044375 31.5625 47.375 C27.6960864 47.375 26.87230686 47.49204193 23.8125 49.375 Z M18.5625 84.375 C19.5625 86.375 19.5625 86.375 19.5625 86.375 Z " fill="#4F9DDB" transform="translate(58.4375,-0.375)"/>
<path d="M0 0 C2 3.75 2 3.75 2 6 C3.98 6 5.96 6 8 6 C8.66 4.68 9.32 3.36 10 2 C10.66 2 11.32 2 12 2 C12.04125 2.928125 12.0825 3.85625 12.125 4.8125 C12.41375 5.864375 12.7025 6.91625 13 8 C14.98 8.99 16.96 9.98 19 11 C19 33.77 19 56.54 19 80 C11.28372093 78.89767442 11.28372093 78.89767442 7.625 76.4375 C2.94088959 73.73604003 -0.66466307 72.75112336 -6 74 C-9.12175049 75.43286696 -12.12518033 77.03319765 -15.16015625 78.640625 C-19.07148671 80.51289873 -21.79960261 81.206744 -26 80 C-28.0001148 79.04258604 -29.97792161 78.03785993 -31.9375 77 C-37.19088625 74.23852037 -41.11131907 72.47402953 -47 74 C-50.13969989 75.43387869 -53.16235121 77.02005021 -56.203125 78.65234375 C-59.73444674 80.35388844 -62.14091592 80.69463514 -66 80 C-69.73701843 78.49081948 -72.24890406 76.88865074 -75 74 C-64.40686141 63.75889925 -52.35252064 57.98002867 -38.75390625 52.7644043 C-28.03993338 48.54770571 -17.38999457 42.38504153 -11.87109375 31.84375 C-9.34408259 25.40723726 -9.38500336 19.01795536 -11.96875 12.58984375 C-12.90727286 10.68933495 -13.94471358 8.83824085 -15 7 C-16.32 7.33 -17.64 7.66 -19 8 C-18.34 7.01 -17.68 6.02 -17 5 C-13.76983405 4.64808972 -10.6532153 4.56357777 -7.41015625 4.56054688 C-5.16311286 4.53658758 -5.16311286 4.53658758 -2 4 C-0.44190747 2.09356556 -0.44190747 2.09356556 0 0 Z " fill="#F78E20" transform="translate(92,78)"/>
<path d="M0 0 C4.13708499 0.31823731 6.85179611 1.41322074 10.3125 3.5625 C14.97124153 6.25143806 18.69356724 7.04435113 24 6 C26.83920467 4.91767907 29.38456315 3.53453896 32 2 C36.02460159 -0.20376242 39.46575191 -0.88473133 44 0 C46.00837074 0.93997216 47.98645448 1.94618688 49.9375 3 C55.19088625 5.76147963 59.11131907 7.52597047 65 6 C68.14060282 4.56570895 71.16597172 2.97811384 74.2109375 1.3515625 C77.79684461 -0.38614599 80.0788978 -0.75405811 84 0 C86.78026311 1.15556229 89.39866919 2.48649844 92 4 C92 7 92 7 90.46795654 8.66026306 C87.16393525 10.45386003 84.17996827 10.44288927 80.51269531 10.43579102 C79.76418304 10.44586685 79.01567078 10.45594269 78.24447632 10.46632385 C75.77220678 10.49479711 73.30054828 10.5006806 70.828125 10.50390625 C69.10422517 10.51355015 67.3803278 10.52364284 65.65643311 10.53416443 C62.04173089 10.55212584 58.42724369 10.5576857 54.8125 10.5559082 C50.19429851 10.55560388 45.5774865 10.59650425 40.9596138 10.64822483 C37.3974991 10.68169047 33.83571616 10.68766261 30.27346039 10.68607903 C28.57187881 10.68960569 26.87028741 10.70279985 25.16886139 10.72607613 C9.1444178 10.92471982 9.1444178 10.92471982 3.32293701 5.67881775 C1.90511844 3.87959453 0.93973956 2.08436892 0 0 Z " fill="#F89936" transform="translate(10,162)"/>
<path d="M0 0 C2.67605641 1.11104128 5.1512377 2.41764342 7.69140625 3.80859375 C11.49387674 5.77095162 14.83196374 6.55034767 19.03125 5.484375 C22.12449441 4.39943106 24.65596491 3.25105264 27.3125 1.3125 C31.75178036 -0.85552064 36.16809915 -0.74545455 41 0 C43.31401724 1.05359976 45.21967207 2.26217951 47.2734375 3.75390625 C49.37715388 5.2721993 51.55483212 6.15947354 54 7 C53.01 8.65 52.02 10.3 51 12 C50.3709375 11.65066406 49.741875 11.30132812 49.09375 10.94140625 C43.60907539 8.02560785 39.25782662 6 33 6 C29.43690564 7.22865323 26.45624289 8.72003277 23.25 10.6875 C18.47024991 12.61778369 14.08263587 12.8048111 9 12 C6.78328448 10.90537411 4.9027993 9.62705205 2.89453125 8.19140625 C-0.47378586 6.07318621 -3.01259087 6 -7 6 C-10.89350103 6.95351046 -14.18452198 8.4828676 -17.5625 10.625 C-20.81238539 12.45826868 -23.27203981 12.87144965 -27 13 C-30.59475468 11.73868257 -33.79839444 10.1027793 -37.1875 8.375 C-39.51654857 7.23635403 -41.47320299 6.4859225 -44 6 C-43.09251815 3.65567188 -42.50783807 2.30094108 -40.3125 1 C-37.24504485 1 -35.47277943 2.43270214 -32.91796875 3.99609375 C-29.02985209 6.03121795 -25.15724437 6.52333151 -20.890625 5.48828125 C-17.81647706 4.39614974 -15.29191304 3.2074119 -12.625 1.3125 C-8.45221447 -0.77389276 -4.56584885 -0.73664131 0 0 Z " fill="#F8A34A" transform="translate(55,154)"/>
<path d="M0 0 C2 1.375 2 1.375 4 3 C4 3.66 4 4.32 4 5 C4.93972656 4.7834375 4.93972656 4.7834375 5.8984375 4.5625 C7.12433594 4.2840625 7.12433594 4.2840625 8.375 4 C9.18710938 3.814375 9.99921875 3.62875 10.8359375 3.4375 C13 3 13 3 15 3 C15 8.28 15 13.56 15 19 C13.01432292 17.47005208 11.02864583 15.94010417 9.04296875 14.41015625 C4.08190594 10.98578976 -1.86341666 11.45594708 -7.58984375 12.44921875 C-9.73874718 12.92788444 -11.87189261 13.43652949 -14 14 C-12.625 12.5 -12.625 12.5 -11 11 C-10.34 11 -9.68 11 -9 11 C-9.33 8.69 -9.66 6.38 -10 4 C-9.484375 4.515625 -8.96875 5.03125 -8.4375 5.5625 C-5.0289729 7.57265701 -2.76893143 6.79727396 1 6 C0.67 4.02 0.34 2.04 0 0 Z " fill="#66AADF" transform="translate(96,65)"/>
<path d="M0 0 C5.28 0 10.56 0 16 0 C15.67 1.65 15.34 3.3 15 5 C12.87527424 5.05386629 10.75016348 5.09273071 8.625 5.125 C6.84996094 5.15980469 6.84996094 5.15980469 5.0390625 5.1953125 C2 5 2 5 0 3 C0 2.01 0 1.02 0 0 Z " fill="#4195D8" transform="translate(51,0)"/>
<path d="M0 0 C0.8353125 0.7425 0.8353125 0.7425 1.6875 1.5 C4.38162983 3.24754367 5.85375007 3.26218749 9 3 C8.67 3.66 8.34 4.32 8 5 C9.65 5.33 11.3 5.66 13 6 C13 6.33 13 6.66 13 7 C11.78763672 7.19916016 11.78763672 7.19916016 10.55078125 7.40234375 C9.48214844 7.57894531 8.41351563 7.75554687 7.3125 7.9375 C6.25675781 8.11152344 5.20101562 8.28554687 4.11328125 8.46484375 C1.39750396 8.93167121 -1.30124235 9.44422616 -4 10 C-2.625 8.5 -2.625 8.5 -1 7 C-0.34 7 0.32 7 1 7 C0.67 4.69 0.34 2.38 0 0 Z " fill="#A2CBEB" transform="translate(86,69)"/>
<path d="M0 0 C1.125 1.625 1.125 1.625 2 4 C1.125 7.25 1.125 7.25 0 10 C-2.31 9.67 -4.62 9.34 -7 9 C-6.01 8.34 -5.02 7.68 -4 7 C-3.34 7.33 -2.68 7.66 -2 8 C-1.34 5.36 -0.68 2.72 0 0 Z " fill="#C5DFF3" transform="translate(77,72)"/>
<path d="M0 0 C0.33 0.99 0.66 1.98 1 3 C0.236875 3.45375 -0.52625 3.9075 -1.3125 4.375 C-3.23632814 5.53824492 -5.12941224 6.7529415 -7 8 C-5.98823563 4.59679258 -5.35156418 3.24274669 -2.375 1.1875 C-1.59125 0.795625 -0.8075 0.40375 0 0 Z " fill="#B4D6EF" transform="translate(50,0)"/>
<path d="M0 0 C0.66 0.33 1.32 0.66 2 1 C-0.31 3.31 -2.62 5.62 -5 8 C-5.66 7.67 -6.32 7.34 -7 7 C-4.78071806 4.09197539 -3.07030857 2.04687238 0 0 Z " fill="#8EC1E8" transform="translate(17,44)"/>
<path d="M0 0 C2.31 0.33 4.62 0.66 7 1 C7 1.66 7 2.32 7 3 C5.02 3.99 5.02 3.99 3 5 C1.5 3.625 1.5 3.625 0 2 C0 1.34 0 0.68 0 0 Z " fill="#B4D6EF" transform="translate(55,99)"/>
<path d="M0 0 C0.99 0.495 0.99 0.495 2 1 C1.01 1.495 1.01 1.495 0 2 C0 1.34 0 0.68 0 0 Z " fill="#FBFCFE" transform="translate(80,79)"/>
<path d="" fill="#FFFFFF" transform="translate(0,0)"/>
</svg>
